%TF.GenerationSoftware,KiCad,Pcbnew,5.99.0-1.20210520gite8102d8.fc34*%
%TF.CreationDate,2021-05-24T16:10:20-07:00*%
%TF.ProjectId,ST_to_MEGA,53545f74-6f5f-44d4-9547-412e6b696361,rev?*%
%TF.SameCoordinates,Original*%
%TF.FileFunction,Copper,L1,Top*%
%TF.FilePolarity,Positive*%
%FSLAX46Y46*%
G04 Gerber Fmt 4.6, Leading zero omitted, Abs format (unit mm)*
G04 Created by KiCad (PCBNEW 5.99.0-1.20210520gite8102d8.fc34) date 2021-05-24 16:10:20*
%MOMM*%
%LPD*%
G01*
G04 APERTURE LIST*
G04 Aperture macros list*
%AMRoundRect*
0 Rectangle with rounded corners*
0 $1 Rounding radius*
0 $2 $3 $4 $5 $6 $7 $8 $9 X,Y pos of 4 corners*
0 Add a 4 corners polygon primitive as box body*
4,1,4,$2,$3,$4,$5,$6,$7,$8,$9,$2,$3,0*
0 Add four circle primitives for the rounded corners*
1,1,$1+$1,$2,$3*
1,1,$1+$1,$4,$5*
1,1,$1+$1,$6,$7*
1,1,$1+$1,$8,$9*
0 Add four rect primitives between the rounded corners*
20,1,$1+$1,$2,$3,$4,$5,0*
20,1,$1+$1,$4,$5,$6,$7,0*
20,1,$1+$1,$6,$7,$8,$9,0*
20,1,$1+$1,$8,$9,$2,$3,0*%
G04 Aperture macros list end*
%TA.AperFunction,SMDPad,CuDef*%
%ADD10RoundRect,0.200000X-0.275000X0.200000X-0.275000X-0.200000X0.275000X-0.200000X0.275000X0.200000X0*%
%TD*%
%TA.AperFunction,SMDPad,CuDef*%
%ADD11RoundRect,0.200000X0.275000X-0.200000X0.275000X0.200000X-0.275000X0.200000X-0.275000X-0.200000X0*%
%TD*%
%TA.AperFunction,ComponentPad*%
%ADD12O,1.700000X1.700000*%
%TD*%
%TA.AperFunction,ComponentPad*%
%ADD13R,1.700000X1.700000*%
%TD*%
%TA.AperFunction,ComponentPad*%
%ADD14R,1.520000X1.520000*%
%TD*%
%TA.AperFunction,ComponentPad*%
%ADD15C,1.520000*%
%TD*%
%TA.AperFunction,Conductor*%
%ADD16C,0.250000*%
%TD*%
G04 APERTURE END LIST*
D10*
%TO.P,R2,1*%
%TO.N,VCC*%
X135800000Y-93285000D03*
%TO.P,R2,2*%
%TO.N,/~RESET*%
X135800000Y-94935000D03*
%TD*%
D11*
%TO.P,R1,1*%
%TO.N,/KEYB_TX*%
X134700000Y-89935000D03*
%TO.P,R1,2*%
%TO.N,VCC*%
X134700000Y-88285000D03*
%TD*%
D12*
%TO.P,J2,8,Pin_8*%
%TO.N,GND*%
X130810000Y-97405000D03*
%TO.P,J2,7,Pin_7*%
%TO.N,/~RESET*%
X130810000Y-94865000D03*
%TO.P,J2,6,Pin_6*%
%TO.N,/KEYB_RX*%
X130810000Y-92325000D03*
%TO.P,J2,5,Pin_5*%
%TO.N,/KEYB_TX*%
X130810000Y-89785000D03*
%TO.P,J2,4,Pin_4*%
%TO.N,VCC*%
X130810000Y-87245000D03*
%TO.P,J2,3,Pin_3*%
%TO.N,/~BD0SEL*%
X130810000Y-84705000D03*
%TO.P,J2,2,Pin_2*%
%TO.N,unconnected-(J2-Pad2)*%
X130810000Y-82165000D03*
D13*
%TO.P,J2,1,Pin_1*%
%TO.N,GND*%
X130810000Y-79625000D03*
%TD*%
D14*
%TO.P,J1,1*%
%TO.N,VCC*%
X141700000Y-91920000D03*
D15*
%TO.P,J1,2*%
X144240000Y-90650000D03*
%TO.P,J1,3*%
%TO.N,/KEYB_RX*%
X141700000Y-89380000D03*
%TO.P,J1,4*%
%TO.N,/KEYB_TX*%
X144240000Y-88110000D03*
%TO.P,J1,5*%
%TO.N,GND*%
X141700000Y-86840000D03*
%TO.P,J1,6*%
X144240000Y-85570000D03*
%TD*%
D16*
%TO.N,/KEYB_RX*%
X141700000Y-89380000D02*
X137620000Y-89380000D01*
X137620000Y-89380000D02*
X134675000Y-92325000D01*
X134675000Y-92325000D02*
X130810000Y-92325000D01*
%TO.N,VCC*%
X135800000Y-93285000D02*
X135010978Y-93285000D01*
X135010978Y-93285000D02*
X134605489Y-93690489D01*
X135800000Y-93285000D02*
X137230000Y-93285000D01*
X137230000Y-93285000D02*
X138595000Y-91920000D01*
%TO.N,/~RESET*%
X130810000Y-94865000D02*
X135730000Y-94865000D01*
X135730000Y-94865000D02*
X135800000Y-94935000D01*
%TO.N,VCC*%
X138595000Y-91920000D02*
X141700000Y-91920000D01*
%TO.N,/KEYB_TX*%
X134700000Y-89935000D02*
X139135000Y-85500000D01*
X141965077Y-85500000D02*
X144240000Y-87774923D01*
X139135000Y-85500000D02*
X141965077Y-85500000D01*
X144240000Y-87774923D02*
X144240000Y-88110000D01*
%TO.N,VCC*%
X130810000Y-87245000D02*
X129000000Y-89055000D01*
X129000000Y-89055000D02*
X129000000Y-92253277D01*
X129000000Y-92253277D02*
X130437212Y-93690489D01*
X130437212Y-93690489D02*
X134605489Y-93690489D01*
X134700000Y-88285000D02*
X131850000Y-88285000D01*
X131850000Y-88285000D02*
X130810000Y-87245000D01*
%TO.N,/KEYB_TX*%
X134700000Y-89935000D02*
X130960000Y-89935000D01*
X130960000Y-89935000D02*
X130810000Y-89785000D01*
%TO.N,/~RESET*%
X130875000Y-94800000D02*
X130810000Y-94865000D01*
%TO.N,VCC*%
X141700000Y-91920000D02*
X142970000Y-91920000D01*
X142970000Y-91920000D02*
X144240000Y-90650000D01*
%TO.N,/~RESET*%
X131020000Y-94800000D02*
X130810000Y-95010000D01*
%TD*%
%TA.AperFunction,Conductor*%
%TO.N,GND*%
G36*
X133395688Y-77774002D02*
G01*
X133422392Y-77797028D01*
X135667633Y-80363018D01*
X136340434Y-81131932D01*
X136792470Y-81648545D01*
X136802403Y-81661505D01*
X136816859Y-81683141D01*
X136848356Y-81704187D01*
X136855152Y-81709063D01*
X136885187Y-81732162D01*
X136893623Y-81734432D01*
X136900885Y-81739285D01*
X136913055Y-81741706D01*
X136913056Y-81741706D01*
X136938019Y-81746671D01*
X136946186Y-81748580D01*
X136970787Y-81755202D01*
X136970791Y-81755202D01*
X136982772Y-81758427D01*
X136995077Y-81756821D01*
X136995079Y-81756821D01*
X137008569Y-81755060D01*
X137024876Y-81754000D01*
X149677896Y-81754000D01*
X149746017Y-81774002D01*
X149792510Y-81827658D01*
X149802614Y-81897932D01*
X149773120Y-81962512D01*
X149741566Y-81988729D01*
X149522607Y-82116934D01*
X149383801Y-82227940D01*
X149326992Y-82273372D01*
X149309593Y-82287286D01*
X149123401Y-82486604D01*
X148967932Y-82710711D01*
X148965902Y-82714792D01*
X148859020Y-82929633D01*
X148846442Y-82954915D01*
X148761478Y-83214098D01*
X148714818Y-83482832D01*
X148714695Y-83487390D01*
X148709098Y-83694233D01*
X148707440Y-83755487D01*
X148707975Y-83760005D01*
X148707975Y-83760011D01*
X148720005Y-83861648D01*
X148739499Y-84026350D01*
X148740683Y-84030752D01*
X148740684Y-84030759D01*
X148759541Y-84100888D01*
X148810323Y-84289749D01*
X148918428Y-84540165D01*
X148920819Y-84544044D01*
X149021825Y-84707906D01*
X149061550Y-84772353D01*
X149236691Y-84981448D01*
X149440181Y-85163070D01*
X149504547Y-85205592D01*
X149663948Y-85310898D01*
X149663955Y-85310902D01*
X149667759Y-85313415D01*
X149671886Y-85315352D01*
X149671892Y-85315356D01*
X149816014Y-85383020D01*
X149914656Y-85429332D01*
X150175700Y-85508395D01*
X150445423Y-85548946D01*
X150449988Y-85548966D01*
X150449989Y-85548966D01*
X150578250Y-85549526D01*
X150718175Y-85550136D01*
X150815802Y-85536328D01*
X150983726Y-85512579D01*
X150983730Y-85512578D01*
X150988242Y-85511940D01*
X151249966Y-85435159D01*
X151343084Y-85392428D01*
X151493708Y-85323308D01*
X151493712Y-85323306D01*
X151497865Y-85321400D01*
X151726745Y-85173047D01*
X151901133Y-85020113D01*
X151928380Y-84996218D01*
X151928382Y-84996216D01*
X151931813Y-84993207D01*
X151934774Y-84989735D01*
X151934779Y-84989729D01*
X152105808Y-84789126D01*
X152105811Y-84789123D01*
X152108772Y-84785649D01*
X152111199Y-84781787D01*
X152111203Y-84781782D01*
X152251486Y-84558584D01*
X152251487Y-84558582D01*
X152253915Y-84554719D01*
X152255757Y-84550554D01*
X152255760Y-84550547D01*
X152362357Y-84309428D01*
X152362359Y-84309423D01*
X152364201Y-84305256D01*
X152418274Y-84110934D01*
X152436097Y-84046885D01*
X152436098Y-84046880D01*
X152437321Y-84042485D01*
X152447618Y-83961542D01*
X152471347Y-83775020D01*
X152471348Y-83775012D01*
X152471742Y-83771912D01*
X152474500Y-83670000D01*
X152454761Y-83397961D01*
X152413212Y-83209765D01*
X152396944Y-83136080D01*
X152396943Y-83136076D01*
X152395959Y-83131620D01*
X152321212Y-82934329D01*
X152300942Y-82880828D01*
X152300941Y-82880825D01*
X152299324Y-82876558D01*
X152166882Y-82638117D01*
X152084145Y-82529705D01*
X152004179Y-82424925D01*
X152004178Y-82424924D01*
X152001407Y-82421293D01*
X151806365Y-82230626D01*
X151585842Y-82070113D01*
X151436439Y-81991508D01*
X151385467Y-81942089D01*
X151369304Y-81872956D01*
X151393083Y-81806060D01*
X151449254Y-81762640D01*
X151495107Y-81754000D01*
X158620000Y-81754000D01*
X158688121Y-81774002D01*
X158734614Y-81827658D01*
X158746000Y-81880000D01*
X158746000Y-95620000D01*
X158725998Y-95688121D01*
X158672342Y-95734614D01*
X158620000Y-95746000D01*
X151497937Y-95746000D01*
X151429816Y-95725998D01*
X151383323Y-95672342D01*
X151373219Y-95602068D01*
X151402713Y-95537488D01*
X151445386Y-95505482D01*
X151497865Y-95481400D01*
X151726745Y-95333047D01*
X151827713Y-95244500D01*
X151928380Y-95156218D01*
X151928382Y-95156216D01*
X151931813Y-95153207D01*
X151934774Y-95149735D01*
X151934779Y-95149729D01*
X152105808Y-94949126D01*
X152105811Y-94949123D01*
X152108772Y-94945649D01*
X152111199Y-94941787D01*
X152111203Y-94941782D01*
X152251486Y-94718584D01*
X152251487Y-94718582D01*
X152253915Y-94714719D01*
X152255757Y-94710554D01*
X152255760Y-94710547D01*
X152362357Y-94469428D01*
X152362359Y-94469423D01*
X152364201Y-94465256D01*
X152418272Y-94270943D01*
X152436097Y-94206885D01*
X152436098Y-94206880D01*
X152437321Y-94202485D01*
X152453595Y-94074562D01*
X152471347Y-93935020D01*
X152471348Y-93935012D01*
X152471742Y-93931912D01*
X152472062Y-93920110D01*
X152474415Y-93833137D01*
X152474500Y-93830000D01*
X152454761Y-93557961D01*
X152413212Y-93369765D01*
X152396944Y-93296080D01*
X152396943Y-93296076D01*
X152395959Y-93291620D01*
X152299324Y-93036558D01*
X152166882Y-92798117D01*
X152058148Y-92655642D01*
X152004179Y-92584925D01*
X152004178Y-92584924D01*
X152001407Y-92581293D01*
X151806365Y-92390626D01*
X151661623Y-92285272D01*
X151589534Y-92232800D01*
X151589531Y-92232798D01*
X151585842Y-92230113D01*
X151344458Y-92103114D01*
X151087269Y-92012292D01*
X150988454Y-91992816D01*
X150824135Y-91960428D01*
X150824129Y-91960427D01*
X150819663Y-91959547D01*
X150815110Y-91959320D01*
X150815107Y-91959320D01*
X150551815Y-91946212D01*
X150551809Y-91946212D01*
X150547246Y-91945985D01*
X150275724Y-91971890D01*
X150271290Y-91972975D01*
X150271284Y-91972976D01*
X150015224Y-92035634D01*
X150010786Y-92036720D01*
X149757982Y-92139117D01*
X149522607Y-92276934D01*
X149422016Y-92357379D01*
X149341412Y-92421840D01*
X149309593Y-92447286D01*
X149123401Y-92646604D01*
X148967932Y-92870711D01*
X148942067Y-92922702D01*
X148855048Y-93097617D01*
X148846442Y-93114915D01*
X148761478Y-93374098D01*
X148714818Y-93642832D01*
X148711157Y-93778109D01*
X148708695Y-93869121D01*
X148707440Y-93915487D01*
X148707975Y-93920005D01*
X148707975Y-93920011D01*
X148725830Y-94070862D01*
X148739499Y-94186350D01*
X148740683Y-94190752D01*
X148740684Y-94190759D01*
X148782852Y-94347584D01*
X148810323Y-94449749D01*
X148918428Y-94700165D01*
X148920819Y-94704044D01*
X148924828Y-94710547D01*
X149061550Y-94932353D01*
X149236691Y-95141448D01*
X149440181Y-95323070D01*
X149503433Y-95364856D01*
X149663948Y-95470898D01*
X149663955Y-95470902D01*
X149667759Y-95473415D01*
X149671892Y-95475355D01*
X149671893Y-95475356D01*
X149737046Y-95505945D01*
X149790209Y-95553001D01*
X149809491Y-95621329D01*
X149788771Y-95689235D01*
X149734628Y-95735159D01*
X149683498Y-95746000D01*
X137037547Y-95746000D01*
X137012967Y-95743579D01*
X137012173Y-95743421D01*
X137012171Y-95743421D01*
X137000000Y-95741000D01*
X136974863Y-95746000D01*
X136900885Y-95760715D01*
X136890567Y-95767609D01*
X136890565Y-95767610D01*
X136827175Y-95809966D01*
X136816859Y-95816859D01*
X136809967Y-95827174D01*
X136809965Y-95827176D01*
X136809510Y-95827857D01*
X136793840Y-95846950D01*
X133431694Y-99209095D01*
X133369382Y-99243121D01*
X133342599Y-99246000D01*
X128880000Y-99246000D01*
X128811879Y-99225998D01*
X128765386Y-99172342D01*
X128754000Y-99120000D01*
X128754000Y-97677423D01*
X129478255Y-97677423D01*
X129486638Y-97729471D01*
X129489212Y-97739793D01*
X129560230Y-97947810D01*
X129564497Y-97957533D01*
X129669556Y-98150625D01*
X129675402Y-98159491D01*
X129811486Y-98332113D01*
X129818750Y-98339875D01*
X129981967Y-98487094D01*
X129990444Y-98493528D01*
X130176122Y-98611136D01*
X130185567Y-98616053D01*
X130388406Y-98700694D01*
X130398545Y-98703950D01*
X130538345Y-98736096D01*
X130552422Y-98735257D01*
X130556000Y-98725999D01*
X130556000Y-97677115D01*
X130554659Y-97672548D01*
X131064000Y-97672548D01*
X131064000Y-98724941D01*
X131068151Y-98739079D01*
X131078798Y-98740774D01*
X131082192Y-98740096D01*
X131293333Y-98678954D01*
X131303259Y-98675143D01*
X131501065Y-98579307D01*
X131510212Y-98573876D01*
X131689041Y-98446083D01*
X131697149Y-98439182D01*
X131851893Y-98283082D01*
X131858706Y-98274933D01*
X131984940Y-98094988D01*
X131990295Y-98085787D01*
X132084399Y-97887156D01*
X132088123Y-97877197D01*
X132145968Y-97670718D01*
X132144430Y-97662351D01*
X132132137Y-97659000D01*
X131082115Y-97659000D01*
X131066876Y-97663475D01*
X131065671Y-97664865D01*
X131064000Y-97672548D01*
X130554659Y-97672548D01*
X130551525Y-97661876D01*
X130550135Y-97660671D01*
X130542452Y-97659000D01*
X129493403Y-97659000D01*
X129480222Y-97662870D01*
X129478255Y-97677423D01*
X128754000Y-97677423D01*
X128754000Y-92848161D01*
X128774002Y-92780040D01*
X128827658Y-92733547D01*
X128897932Y-92723443D01*
X128962512Y-92752937D01*
X128969095Y-92759066D01*
X130071276Y-93861247D01*
X130105302Y-93923559D01*
X130100237Y-93994374D01*
X130073199Y-94037473D01*
X129939291Y-94177355D01*
X129824969Y-94354408D01*
X129746190Y-94549885D01*
X129745040Y-94555775D01*
X129714000Y-94714719D01*
X129705795Y-94756732D01*
X129705243Y-94967485D01*
X129706361Y-94973372D01*
X129740504Y-95153207D01*
X129744554Y-95174541D01*
X129822309Y-95370427D01*
X129935702Y-95548076D01*
X130080642Y-95701079D01*
X130085507Y-95704569D01*
X130085510Y-95704571D01*
X130232454Y-95809966D01*
X130251899Y-95823913D01*
X130358863Y-95873224D01*
X130383030Y-95884365D01*
X130436519Y-95931049D01*
X130456278Y-95999241D01*
X130436033Y-96067290D01*
X130376560Y-96115983D01*
X130208932Y-96182182D01*
X130199396Y-96186916D01*
X130011486Y-96300942D01*
X130002896Y-96307206D01*
X129836884Y-96451264D01*
X129829464Y-96458895D01*
X129690100Y-96628860D01*
X129684075Y-96637627D01*
X129575342Y-96828644D01*
X129570877Y-96838308D01*
X129495882Y-97044916D01*
X129493111Y-97055184D01*
X129479008Y-97133174D01*
X129480427Y-97146414D01*
X129495062Y-97151000D01*
X132129079Y-97151000D01*
X132142610Y-97147027D01*
X132143876Y-97138218D01*
X132096954Y-96957433D01*
X132093419Y-96947395D01*
X132003147Y-96746998D01*
X131997967Y-96737692D01*
X131875218Y-96555366D01*
X131868557Y-96547080D01*
X131716830Y-96388030D01*
X131708873Y-96380990D01*
X131532523Y-96249782D01*
X131523486Y-96244178D01*
X131327550Y-96144559D01*
X131317699Y-96140559D01*
X131254663Y-96120986D01*
X131195538Y-96081683D01*
X131167047Y-96016654D01*
X131178237Y-95946544D01*
X131225554Y-95893614D01*
X131251312Y-95881413D01*
X131266575Y-95876202D01*
X131382464Y-95809966D01*
X131444344Y-95774599D01*
X131444347Y-95774597D01*
X131449552Y-95771622D01*
X131454101Y-95767716D01*
X131454104Y-95767714D01*
X131604900Y-95638237D01*
X131604902Y-95638235D01*
X131609451Y-95634329D01*
X131620829Y-95620000D01*
X131704165Y-95515044D01*
X131740505Y-95469277D01*
X131822439Y-95312219D01*
X131871678Y-95261077D01*
X131934149Y-95244500D01*
X134994245Y-95244500D01*
X135062366Y-95264502D01*
X135107828Y-95315958D01*
X135133984Y-95370427D01*
X135144956Y-95393277D01*
X135237701Y-95493608D01*
X135355847Y-95562232D01*
X135407423Y-95574187D01*
X135466491Y-95587879D01*
X135466494Y-95587879D01*
X135473486Y-95589500D01*
X136108258Y-95589500D01*
X136112905Y-95588801D01*
X136112910Y-95588801D01*
X136200801Y-95575587D01*
X136200802Y-95575587D01*
X136210112Y-95574187D01*
X136333277Y-95515044D01*
X136433608Y-95422299D01*
X136502232Y-95304153D01*
X136529500Y-95186514D01*
X136529500Y-94701742D01*
X136528635Y-94695983D01*
X136515587Y-94609199D01*
X136515587Y-94609198D01*
X136514187Y-94599888D01*
X136455044Y-94476723D01*
X136440380Y-94460859D01*
X136368690Y-94383306D01*
X136362299Y-94376392D01*
X136244153Y-94307768D01*
X136179673Y-94292822D01*
X136133509Y-94282121D01*
X136133506Y-94282121D01*
X136126514Y-94280500D01*
X135491742Y-94280500D01*
X135487095Y-94281199D01*
X135487090Y-94281199D01*
X135399199Y-94294413D01*
X135399198Y-94294413D01*
X135389888Y-94295813D01*
X135266723Y-94354956D01*
X135166392Y-94447701D01*
X135164765Y-94445941D01*
X135117534Y-94478937D01*
X135077399Y-94485500D01*
X131933746Y-94485500D01*
X131865625Y-94465498D01*
X131821730Y-94417192D01*
X131746406Y-94270943D01*
X131743656Y-94265603D01*
X131741716Y-94263133D01*
X131722018Y-94195931D01*
X131742052Y-94127819D01*
X131795729Y-94081351D01*
X131848018Y-94069989D01*
X134552724Y-94069989D01*
X134573442Y-94072194D01*
X134577200Y-94072371D01*
X134587376Y-94074562D01*
X134618638Y-94070862D01*
X134625155Y-94070478D01*
X134625150Y-94070417D01*
X134630329Y-94069989D01*
X134635529Y-94069989D01*
X134640657Y-94069135D01*
X134640662Y-94069135D01*
X134656012Y-94066580D01*
X134661889Y-94065743D01*
X134680143Y-94063582D01*
X134712761Y-94059722D01*
X134721009Y-94055761D01*
X134730035Y-94054259D01*
X134775143Y-94029920D01*
X134780401Y-94027242D01*
X134819433Y-94008500D01*
X134819437Y-94008498D01*
X134826579Y-94005068D01*
X134833011Y-93999661D01*
X134834949Y-93997723D01*
X134835140Y-93997547D01*
X134841152Y-93994304D01*
X134848221Y-93986656D01*
X134848227Y-93986652D01*
X134873522Y-93959287D01*
X134876952Y-93955720D01*
X135025602Y-93807070D01*
X135087914Y-93773044D01*
X135158729Y-93778109D01*
X135207222Y-93810636D01*
X135237701Y-93843608D01*
X135355847Y-93912232D01*
X135404714Y-93923559D01*
X135466491Y-93937879D01*
X135466494Y-93937879D01*
X135473486Y-93939500D01*
X136108258Y-93939500D01*
X136112905Y-93938801D01*
X136112910Y-93938801D01*
X136200801Y-93925587D01*
X136200802Y-93925587D01*
X136210112Y-93924187D01*
X136333277Y-93865044D01*
X136433608Y-93772299D01*
X136459795Y-93727214D01*
X136511306Y-93678356D01*
X136568749Y-93664500D01*
X137177235Y-93664500D01*
X137197953Y-93666705D01*
X137201711Y-93666882D01*
X137211887Y-93669073D01*
X137243149Y-93665373D01*
X137249666Y-93664989D01*
X137249661Y-93664928D01*
X137254840Y-93664500D01*
X137260040Y-93664500D01*
X137265168Y-93663646D01*
X137265173Y-93663646D01*
X137280523Y-93661091D01*
X137286400Y-93660254D01*
X137304654Y-93658093D01*
X137337272Y-93654233D01*
X137345520Y-93650272D01*
X137354546Y-93648770D01*
X137399654Y-93624431D01*
X137404912Y-93621753D01*
X137443944Y-93603011D01*
X137443948Y-93603009D01*
X137451090Y-93599579D01*
X137457522Y-93594172D01*
X137459460Y-93592234D01*
X137459651Y-93592058D01*
X137465663Y-93588815D01*
X137472732Y-93581167D01*
X137472738Y-93581163D01*
X137498033Y-93553798D01*
X137501463Y-93550231D01*
X138715289Y-92336405D01*
X138777601Y-92302379D01*
X138804384Y-92299500D01*
X140554500Y-92299500D01*
X140622621Y-92319502D01*
X140669114Y-92373158D01*
X140680500Y-92425500D01*
X140680500Y-92680000D01*
X140700253Y-92779306D01*
X140756506Y-92863494D01*
X140840694Y-92919747D01*
X140940000Y-92939500D01*
X142460000Y-92939500D01*
X142559306Y-92919747D01*
X142643494Y-92863494D01*
X142699747Y-92779306D01*
X142719500Y-92680000D01*
X142719500Y-92425500D01*
X142739502Y-92357379D01*
X142793158Y-92310886D01*
X142845500Y-92299500D01*
X142917235Y-92299500D01*
X142937953Y-92301705D01*
X142941711Y-92301882D01*
X142951887Y-92304073D01*
X142983149Y-92300373D01*
X142989666Y-92299989D01*
X142989661Y-92299928D01*
X142994840Y-92299500D01*
X143000040Y-92299500D01*
X143005168Y-92298646D01*
X143005173Y-92298646D01*
X143020523Y-92296091D01*
X143026400Y-92295254D01*
X143044654Y-92293093D01*
X143077272Y-92289233D01*
X143085520Y-92285272D01*
X143094546Y-92283770D01*
X143139654Y-92259431D01*
X143144912Y-92256753D01*
X143183944Y-92238011D01*
X143183948Y-92238009D01*
X143191090Y-92234579D01*
X143197522Y-92229172D01*
X143199460Y-92227234D01*
X143199651Y-92227058D01*
X143205663Y-92223815D01*
X143212732Y-92216167D01*
X143212738Y-92216163D01*
X143238033Y-92188798D01*
X143241463Y-92185231D01*
X143785260Y-91641434D01*
X143847572Y-91607408D01*
X143913290Y-91610696D01*
X143995341Y-91637355D01*
X144021077Y-91645717D01*
X144218649Y-91669276D01*
X144224784Y-91668804D01*
X144224786Y-91668804D01*
X144410893Y-91654485D01*
X144410898Y-91654484D01*
X144417034Y-91654012D01*
X144422966Y-91652356D01*
X144422970Y-91652355D01*
X144535408Y-91620961D01*
X144608676Y-91600504D01*
X144786275Y-91510792D01*
X144819142Y-91485114D01*
X144938211Y-91392087D01*
X144938212Y-91392087D01*
X144943067Y-91388293D01*
X144964746Y-91363178D01*
X145069050Y-91242341D01*
X145069051Y-91242339D01*
X145073079Y-91237673D01*
X145171360Y-91064668D01*
X145234165Y-90875869D01*
X145250835Y-90743913D01*
X145258661Y-90681968D01*
X145258662Y-90681961D01*
X145259103Y-90678466D01*
X145259500Y-90650000D01*
X145240084Y-90451978D01*
X145182575Y-90261499D01*
X145171565Y-90240792D01*
X145092059Y-90091263D01*
X145092057Y-90091261D01*
X145089163Y-90085817D01*
X145042688Y-90028833D01*
X144967302Y-89936400D01*
X144967299Y-89936397D01*
X144963407Y-89931625D01*
X144946618Y-89917736D01*
X144814846Y-89808724D01*
X144814841Y-89808721D01*
X144810097Y-89804796D01*
X144804678Y-89801866D01*
X144804675Y-89801864D01*
X144640490Y-89713090D01*
X144640486Y-89713088D01*
X144635072Y-89710161D01*
X144629192Y-89708341D01*
X144629190Y-89708340D01*
X144579045Y-89692817D01*
X144444999Y-89651323D01*
X144438881Y-89650680D01*
X144438876Y-89650679D01*
X144253246Y-89631169D01*
X144253244Y-89631169D01*
X144247117Y-89630525D01*
X144163743Y-89638113D01*
X144055104Y-89647999D01*
X144055101Y-89648000D01*
X144048965Y-89648558D01*
X144043059Y-89650296D01*
X144043055Y-89650297D01*
X143953238Y-89676732D01*
X143858089Y-89704736D01*
X143681759Y-89796919D01*
X143676959Y-89800779D01*
X143676958Y-89800779D01*
X143643219Y-89827906D01*
X143526693Y-89921595D01*
X143398797Y-90074016D01*
X143395833Y-90079408D01*
X143395830Y-90079412D01*
X143340899Y-90179332D01*
X143302942Y-90248376D01*
X143301081Y-90254243D01*
X143301080Y-90254245D01*
X143255074Y-90399276D01*
X143242779Y-90438034D01*
X143220599Y-90635766D01*
X143221115Y-90641909D01*
X143234072Y-90796202D01*
X143237249Y-90834039D01*
X143279638Y-90981867D01*
X143279187Y-91052861D01*
X143247614Y-91105691D01*
X142934595Y-91418710D01*
X142872283Y-91452736D01*
X142801468Y-91447671D01*
X142744632Y-91405124D01*
X142719821Y-91338604D01*
X142719500Y-91329615D01*
X142719500Y-91160000D01*
X142699747Y-91060694D01*
X142643494Y-90976506D01*
X142559306Y-90920253D01*
X142460000Y-90900500D01*
X140940000Y-90900500D01*
X140840694Y-90920253D01*
X140756506Y-90976506D01*
X140700253Y-91060694D01*
X140680500Y-91160000D01*
X140680500Y-91414500D01*
X140660498Y-91482621D01*
X140606842Y-91529114D01*
X140554500Y-91540500D01*
X138647765Y-91540500D01*
X138627047Y-91538295D01*
X138623289Y-91538118D01*
X138613113Y-91535927D01*
X138582685Y-91539528D01*
X138581851Y-91539627D01*
X138575334Y-91540011D01*
X138575339Y-91540072D01*
X138570160Y-91540500D01*
X138564960Y-91540500D01*
X138559832Y-91541354D01*
X138559827Y-91541354D01*
X138544477Y-91543909D01*
X138538600Y-91544746D01*
X138520346Y-91546907D01*
X138487728Y-91550767D01*
X138479480Y-91554728D01*
X138470454Y-91556230D01*
X138461286Y-91561177D01*
X138461285Y-91561177D01*
X138425375Y-91580553D01*
X138420086Y-91583248D01*
X138373911Y-91605421D01*
X138367478Y-91610828D01*
X138365548Y-91612758D01*
X138365347Y-91612942D01*
X138359337Y-91616185D01*
X138352268Y-91623832D01*
X138352267Y-91623833D01*
X138326980Y-91651189D01*
X138323550Y-91654756D01*
X137109710Y-92868595D01*
X137047398Y-92902621D01*
X137020615Y-92905500D01*
X136572142Y-92905500D01*
X136504021Y-92885498D01*
X136465700Y-92842128D01*
X136464414Y-92843002D01*
X136459121Y-92835213D01*
X136455044Y-92826723D01*
X136362299Y-92726392D01*
X136244153Y-92657768D01*
X136179673Y-92642822D01*
X136133509Y-92632121D01*
X136133506Y-92632121D01*
X136126514Y-92630500D01*
X135491742Y-92630500D01*
X135487095Y-92631199D01*
X135487090Y-92631199D01*
X135399199Y-92644413D01*
X135399198Y-92644413D01*
X135389888Y-92645813D01*
X135318694Y-92680000D01*
X135286505Y-92695457D01*
X135266723Y-92704956D01*
X135166392Y-92797701D01*
X135141844Y-92839964D01*
X135090336Y-92888821D01*
X135031751Y-92901500D01*
X135029091Y-92900927D01*
X135000550Y-92904305D01*
X134997829Y-92904627D01*
X134991312Y-92905011D01*
X134991317Y-92905072D01*
X134986138Y-92905500D01*
X134980938Y-92905500D01*
X134975810Y-92906354D01*
X134975805Y-92906354D01*
X134960455Y-92908909D01*
X134954578Y-92909746D01*
X134936324Y-92911907D01*
X134903706Y-92915767D01*
X134896814Y-92919077D01*
X134889866Y-92920658D01*
X134886428Y-92921230D01*
X134886395Y-92921033D01*
X134883704Y-92922702D01*
X134841357Y-92945551D01*
X134836066Y-92948247D01*
X134797034Y-92966989D01*
X134797030Y-92966991D01*
X134789888Y-92970421D01*
X134783456Y-92975828D01*
X134781518Y-92977766D01*
X134781327Y-92977942D01*
X134775315Y-92981185D01*
X134743162Y-93015968D01*
X134742946Y-93016201D01*
X134739517Y-93019766D01*
X134485199Y-93274084D01*
X134422887Y-93308110D01*
X134396104Y-93310989D01*
X131696282Y-93310989D01*
X131628161Y-93290987D01*
X131581668Y-93237331D01*
X131571564Y-93167057D01*
X131605403Y-93097804D01*
X131609451Y-93094329D01*
X131740505Y-92929277D01*
X131822439Y-92772219D01*
X131871678Y-92721077D01*
X131934149Y-92704500D01*
X134622235Y-92704500D01*
X134642953Y-92706705D01*
X134646711Y-92706882D01*
X134656887Y-92709073D01*
X134688149Y-92705373D01*
X134694666Y-92704989D01*
X134694661Y-92704928D01*
X134699840Y-92704500D01*
X134705040Y-92704500D01*
X134710168Y-92703646D01*
X134710173Y-92703646D01*
X134725523Y-92701091D01*
X134731400Y-92700254D01*
X134749654Y-92698093D01*
X134782272Y-92694233D01*
X134789164Y-92690923D01*
X134796112Y-92689342D01*
X134799550Y-92688770D01*
X134799583Y-92688967D01*
X134802274Y-92687298D01*
X134844621Y-92664449D01*
X134849912Y-92661753D01*
X134888944Y-92643011D01*
X134888948Y-92643009D01*
X134896090Y-92639579D01*
X134902522Y-92634172D01*
X134904460Y-92632234D01*
X134904651Y-92632058D01*
X134910663Y-92628815D01*
X134917732Y-92621167D01*
X134917738Y-92621163D01*
X134943033Y-92593798D01*
X134946463Y-92590231D01*
X137740289Y-89796405D01*
X137802601Y-89762379D01*
X137829384Y-89759500D01*
X140677339Y-89759500D01*
X140745460Y-89779502D01*
X140789406Y-89827906D01*
X140835572Y-89917736D01*
X140843042Y-89932272D01*
X140846865Y-89937096D01*
X140846868Y-89937100D01*
X140951648Y-90069298D01*
X140966633Y-90088204D01*
X141118158Y-90217162D01*
X141123536Y-90220168D01*
X141123538Y-90220169D01*
X141165409Y-90243570D01*
X141291844Y-90314232D01*
X141481077Y-90375717D01*
X141678649Y-90399276D01*
X141684784Y-90398804D01*
X141684786Y-90398804D01*
X141870893Y-90384485D01*
X141870898Y-90384484D01*
X141877034Y-90384012D01*
X141882966Y-90382356D01*
X141882970Y-90382355D01*
X141972855Y-90357258D01*
X142068676Y-90330504D01*
X142246275Y-90240792D01*
X142272672Y-90220169D01*
X142398211Y-90122087D01*
X142398212Y-90122087D01*
X142403067Y-90118293D01*
X142441286Y-90074016D01*
X142529050Y-89972341D01*
X142529051Y-89972339D01*
X142533079Y-89967673D01*
X142631360Y-89794668D01*
X142694165Y-89605869D01*
X142708451Y-89492786D01*
X142718661Y-89411968D01*
X142718662Y-89411961D01*
X142719103Y-89408466D01*
X142719500Y-89380000D01*
X142718811Y-89372967D01*
X142711108Y-89294413D01*
X142700084Y-89181978D01*
X142642575Y-88991499D01*
X142631565Y-88970792D01*
X142552059Y-88821263D01*
X142552057Y-88821261D01*
X142549163Y-88815817D01*
X142459766Y-88706205D01*
X142427302Y-88666400D01*
X142427299Y-88666397D01*
X142423407Y-88661625D01*
X142406618Y-88647736D01*
X142274846Y-88538724D01*
X142274841Y-88538721D01*
X142270097Y-88534796D01*
X142264678Y-88531866D01*
X142264675Y-88531864D01*
X142100490Y-88443090D01*
X142100486Y-88443088D01*
X142095072Y-88440161D01*
X142089192Y-88438341D01*
X142089190Y-88438340D01*
X142039045Y-88422817D01*
X141904999Y-88381323D01*
X141898881Y-88380680D01*
X141898876Y-88380679D01*
X141713246Y-88361169D01*
X141713244Y-88361169D01*
X141707117Y-88360525D01*
X141623743Y-88368113D01*
X141515104Y-88377999D01*
X141515101Y-88378000D01*
X141508965Y-88378558D01*
X141503059Y-88380296D01*
X141503055Y-88380297D01*
X141363756Y-88421296D01*
X141318089Y-88434736D01*
X141141759Y-88526919D01*
X141136959Y-88530779D01*
X141136958Y-88530779D01*
X141120797Y-88543773D01*
X140986693Y-88651595D01*
X140858797Y-88804016D01*
X140792733Y-88924187D01*
X140786678Y-88935201D01*
X140736333Y-88985259D01*
X140676263Y-89000500D01*
X137672765Y-89000500D01*
X137652047Y-88998295D01*
X137648289Y-88998118D01*
X137638113Y-88995927D01*
X137607685Y-88999528D01*
X137606851Y-88999627D01*
X137600334Y-89000011D01*
X137600339Y-89000072D01*
X137595160Y-89000500D01*
X137589960Y-89000500D01*
X137584832Y-89001354D01*
X137584827Y-89001354D01*
X137569477Y-89003909D01*
X137563600Y-89004746D01*
X137545346Y-89006907D01*
X137512728Y-89010767D01*
X137504480Y-89014728D01*
X137495454Y-89016230D01*
X137450346Y-89040569D01*
X137445088Y-89043247D01*
X137406056Y-89061989D01*
X137406052Y-89061991D01*
X137398910Y-89065421D01*
X137392478Y-89070828D01*
X137390542Y-89072764D01*
X137390348Y-89072942D01*
X137384337Y-89076185D01*
X137377268Y-89083832D01*
X137377267Y-89083833D01*
X137351980Y-89111189D01*
X137348550Y-89114756D01*
X134554710Y-91908595D01*
X134492398Y-91942621D01*
X134465615Y-91945500D01*
X131933746Y-91945500D01*
X131865625Y-91925498D01*
X131821730Y-91877192D01*
X131746402Y-91730935D01*
X131743656Y-91725603D01*
X131680905Y-91645717D01*
X131617175Y-91564584D01*
X131617171Y-91564579D01*
X131613469Y-91559867D01*
X131608731Y-91555755D01*
X131458821Y-91425671D01*
X131454290Y-91421739D01*
X131271864Y-91316203D01*
X131266195Y-91314234D01*
X131266192Y-91314233D01*
X131078442Y-91249035D01*
X131072772Y-91247066D01*
X131040184Y-91242341D01*
X130870139Y-91217686D01*
X130870136Y-91217686D01*
X130864199Y-91216825D01*
X130653670Y-91226569D01*
X130647846Y-91227973D01*
X130647843Y-91227973D01*
X130454615Y-91274541D01*
X130454613Y-91274542D01*
X130448782Y-91275947D01*
X130443324Y-91278429D01*
X130443320Y-91278430D01*
X130360244Y-91316203D01*
X130256928Y-91363178D01*
X130085030Y-91485114D01*
X129939291Y-91637355D01*
X129824969Y-91814408D01*
X129822726Y-91819974D01*
X129761065Y-91972976D01*
X129746190Y-92009885D01*
X129740615Y-92038434D01*
X129717568Y-92156446D01*
X129684880Y-92219470D01*
X129623308Y-92254817D01*
X129552400Y-92251264D01*
X129504809Y-92221391D01*
X129416405Y-92132987D01*
X129382379Y-92070675D01*
X129379500Y-92043892D01*
X129379500Y-89264384D01*
X129399502Y-89196263D01*
X129416405Y-89175289D01*
X130282809Y-88308885D01*
X130345121Y-88274859D01*
X130415936Y-88279924D01*
X130424652Y-88283553D01*
X130443294Y-88292147D01*
X130449110Y-88293581D01*
X130449113Y-88293582D01*
X130543566Y-88316869D01*
X130647921Y-88342598D01*
X130653911Y-88342907D01*
X130653913Y-88342907D01*
X130727857Y-88346717D01*
X130858396Y-88353444D01*
X130864331Y-88352615D01*
X130864335Y-88352615D01*
X131028069Y-88329749D01*
X131067124Y-88324295D01*
X131205650Y-88277002D01*
X131276580Y-88273922D01*
X131335455Y-88307149D01*
X131544344Y-88516038D01*
X131557425Y-88532234D01*
X131559961Y-88535021D01*
X131565612Y-88543773D01*
X131573791Y-88550220D01*
X131573791Y-88550221D01*
X131590336Y-88563264D01*
X131595216Y-88567601D01*
X131595256Y-88567554D01*
X131599213Y-88570907D01*
X131602894Y-88574588D01*
X131619791Y-88586663D01*
X131624537Y-88590227D01*
X131664766Y-88621940D01*
X131673400Y-88624972D01*
X131680843Y-88630291D01*
X131690821Y-88633275D01*
X131729903Y-88644963D01*
X131735552Y-88646798D01*
X131783893Y-88663775D01*
X131792265Y-88664500D01*
X131794979Y-88664500D01*
X131795271Y-88664513D01*
X131801809Y-88666468D01*
X131849429Y-88664597D01*
X131854376Y-88664500D01*
X133927858Y-88664500D01*
X133995979Y-88684502D01*
X134034300Y-88727872D01*
X134035586Y-88726998D01*
X134040879Y-88734787D01*
X134044956Y-88743277D01*
X134137701Y-88843608D01*
X134255847Y-88912232D01*
X134307423Y-88924187D01*
X134366491Y-88937879D01*
X134366494Y-88937879D01*
X134373486Y-88939500D01*
X134854614Y-88939500D01*
X134922735Y-88959502D01*
X134969228Y-89013158D01*
X134979332Y-89083432D01*
X134949838Y-89148012D01*
X134943709Y-89154595D01*
X134854709Y-89243595D01*
X134792397Y-89277621D01*
X134765614Y-89280500D01*
X134391742Y-89280500D01*
X134387095Y-89281199D01*
X134387090Y-89281199D01*
X134299199Y-89294413D01*
X134299198Y-89294413D01*
X134289888Y-89295813D01*
X134166723Y-89354956D01*
X134159809Y-89361348D01*
X134159808Y-89361348D01*
X134135838Y-89383506D01*
X134066392Y-89447701D01*
X134050086Y-89475775D01*
X134040205Y-89492786D01*
X133988694Y-89541644D01*
X133931251Y-89555500D01*
X131988050Y-89555500D01*
X131919929Y-89535498D01*
X131873436Y-89481842D01*
X131867145Y-89464969D01*
X131866954Y-89464316D01*
X131840155Y-89372967D01*
X131799697Y-89294413D01*
X131746402Y-89190934D01*
X131746400Y-89190931D01*
X131743656Y-89185603D01*
X131679409Y-89103813D01*
X131617175Y-89024584D01*
X131617171Y-89024579D01*
X131613469Y-89019867D01*
X131605866Y-89013269D01*
X131458821Y-88885671D01*
X131454290Y-88881739D01*
X131271864Y-88776203D01*
X131266195Y-88774234D01*
X131266192Y-88774233D01*
X131078442Y-88709035D01*
X131072772Y-88707066D01*
X131040184Y-88702341D01*
X130870139Y-88677686D01*
X130870136Y-88677686D01*
X130864199Y-88676825D01*
X130653670Y-88686569D01*
X130647846Y-88687973D01*
X130647843Y-88687973D01*
X130454615Y-88734541D01*
X130454613Y-88734542D01*
X130448782Y-88735947D01*
X130443324Y-88738429D01*
X130443320Y-88738430D01*
X130360244Y-88776203D01*
X130256928Y-88823178D01*
X130085030Y-88945114D01*
X129939291Y-89097355D01*
X129824969Y-89274408D01*
X129822726Y-89279974D01*
X129781002Y-89383506D01*
X129746190Y-89469885D01*
X129732176Y-89541644D01*
X129714710Y-89631084D01*
X129705795Y-89676732D01*
X129705779Y-89682718D01*
X129705779Y-89682721D01*
X129705578Y-89759500D01*
X129705243Y-89887485D01*
X129724899Y-89991013D01*
X129742898Y-90085817D01*
X129744554Y-90094541D01*
X129822309Y-90290427D01*
X129825533Y-90295477D01*
X129825534Y-90295480D01*
X129847890Y-90330504D01*
X129935702Y-90468076D01*
X130080642Y-90621079D01*
X130085507Y-90624569D01*
X130085510Y-90624571D01*
X130247029Y-90740420D01*
X130251899Y-90743913D01*
X130443294Y-90832147D01*
X130449110Y-90833581D01*
X130449113Y-90833582D01*
X130543566Y-90856869D01*
X130647921Y-90882598D01*
X130653911Y-90882907D01*
X130653913Y-90882907D01*
X130727857Y-90886717D01*
X130858396Y-90893444D01*
X130864331Y-90892615D01*
X130864335Y-90892615D01*
X131028069Y-90869749D01*
X131067124Y-90864295D01*
X131211269Y-90815084D01*
X131260896Y-90798141D01*
X131260898Y-90798140D01*
X131266575Y-90796202D01*
X131364173Y-90740420D01*
X131444344Y-90694599D01*
X131444347Y-90694597D01*
X131449552Y-90691622D01*
X131454101Y-90687716D01*
X131454104Y-90687714D01*
X131604900Y-90558237D01*
X131604902Y-90558235D01*
X131609451Y-90554329D01*
X131645720Y-90508652D01*
X131736778Y-90393971D01*
X131736779Y-90393970D01*
X131740505Y-90389277D01*
X131743280Y-90383958D01*
X131744186Y-90382222D01*
X131744867Y-90381514D01*
X131746545Y-90378931D01*
X131747043Y-90379254D01*
X131793427Y-90331077D01*
X131855898Y-90314500D01*
X133927858Y-90314500D01*
X133995979Y-90334502D01*
X134034300Y-90377872D01*
X134035586Y-90376998D01*
X134040879Y-90384787D01*
X134044956Y-90393277D01*
X134137701Y-90493608D01*
X134255847Y-90562232D01*
X134307423Y-90574187D01*
X134366491Y-90587879D01*
X134366494Y-90587879D01*
X134373486Y-90589500D01*
X135008258Y-90589500D01*
X135012905Y-90588801D01*
X135012910Y-90588801D01*
X135100801Y-90575587D01*
X135100802Y-90575587D01*
X135110112Y-90574187D01*
X135233277Y-90515044D01*
X135333608Y-90422299D01*
X135402232Y-90304153D01*
X135429500Y-90186514D01*
X135429500Y-89794384D01*
X135449502Y-89726263D01*
X135466405Y-89705289D01*
X137272716Y-87898978D01*
X141005852Y-87898978D01*
X141011133Y-87906032D01*
X141153139Y-87989014D01*
X141163254Y-87993774D01*
X141365259Y-88067698D01*
X141376044Y-88070588D01*
X141587954Y-88107571D01*
X141599088Y-88108506D01*
X141814185Y-88107379D01*
X141825321Y-88106327D01*
X142036816Y-88067129D01*
X142047584Y-88064123D01*
X142248803Y-87988088D01*
X142258863Y-87983225D01*
X142384170Y-87908230D01*
X142393741Y-87897871D01*
X142390198Y-87889408D01*
X141712812Y-87212022D01*
X141698868Y-87204408D01*
X141697035Y-87204539D01*
X141690420Y-87208790D01*
X141012612Y-87886598D01*
X141005852Y-87898978D01*
X137272716Y-87898978D01*
X139255289Y-85916405D01*
X139317601Y-85882379D01*
X139344384Y-85879500D01*
X140577955Y-85879500D01*
X140646076Y-85899502D01*
X140692569Y-85953158D01*
X140702673Y-86023432D01*
X140684693Y-86072456D01*
X140568728Y-86257322D01*
X140563657Y-86267274D01*
X140483425Y-86466857D01*
X140480194Y-86477557D01*
X140436574Y-86688188D01*
X140435289Y-86699295D01*
X140429659Y-86914326D01*
X140430361Y-86925478D01*
X140462897Y-87138102D01*
X140465564Y-87148963D01*
X140535240Y-87352468D01*
X140539788Y-87362682D01*
X140630496Y-87525653D01*
X140640548Y-87535544D01*
X140648152Y-87532638D01*
X141610905Y-86569885D01*
X141673217Y-86535859D01*
X141744032Y-86540924D01*
X141789095Y-86569885D01*
X142748682Y-87529472D01*
X142761062Y-87536232D01*
X142767326Y-87531543D01*
X142865628Y-87350495D01*
X142870061Y-87340249D01*
X142904933Y-87234806D01*
X142945313Y-87176411D01*
X143010853Y-87149117D01*
X143080746Y-87161589D01*
X143113656Y-87185274D01*
X143354463Y-87426081D01*
X143388489Y-87488393D01*
X143383424Y-87559208D01*
X143375783Y-87575876D01*
X143305910Y-87702976D01*
X143305908Y-87702982D01*
X143302942Y-87708376D01*
X143301081Y-87714243D01*
X143301080Y-87714245D01*
X143246407Y-87886598D01*
X143242779Y-87898034D01*
X143220599Y-88095766D01*
X143221115Y-88101909D01*
X143236369Y-88283555D01*
X143237249Y-88294039D01*
X143238948Y-88299964D01*
X143279989Y-88443090D01*
X143292093Y-88485303D01*
X143294908Y-88490780D01*
X143294909Y-88490783D01*
X143377555Y-88651595D01*
X143383042Y-88662272D01*
X143386865Y-88667096D01*
X143386868Y-88667100D01*
X143491648Y-88799298D01*
X143506633Y-88818204D01*
X143511327Y-88822198D01*
X143511327Y-88822199D01*
X143647251Y-88937879D01*
X143658158Y-88947162D01*
X143663536Y-88950168D01*
X143663538Y-88950169D01*
X143700439Y-88970792D01*
X143831844Y-89044232D01*
X144021077Y-89105717D01*
X144218649Y-89129276D01*
X144224784Y-89128804D01*
X144224786Y-89128804D01*
X144410893Y-89114485D01*
X144410898Y-89114484D01*
X144417034Y-89114012D01*
X144422966Y-89112356D01*
X144422970Y-89112355D01*
X144535408Y-89080961D01*
X144608676Y-89060504D01*
X144786275Y-88970792D01*
X144812672Y-88950169D01*
X144938211Y-88852087D01*
X144938212Y-88852087D01*
X144943067Y-88848293D01*
X144966399Y-88821263D01*
X145069050Y-88702341D01*
X145069051Y-88702339D01*
X145073079Y-88697673D01*
X145171360Y-88524668D01*
X145234165Y-88335869D01*
X145259103Y-88138466D01*
X145259500Y-88110000D01*
X145240084Y-87911978D01*
X145182575Y-87721499D01*
X145105146Y-87575876D01*
X145092059Y-87551263D01*
X145092057Y-87551261D01*
X145089163Y-87545817D01*
X144991509Y-87426081D01*
X144967302Y-87396400D01*
X144967299Y-87396397D01*
X144963407Y-87391625D01*
X144928421Y-87362682D01*
X144814846Y-87268724D01*
X144814841Y-87268721D01*
X144810097Y-87264796D01*
X144804678Y-87261866D01*
X144804675Y-87261864D01*
X144640490Y-87173090D01*
X144640486Y-87173088D01*
X144635072Y-87170161D01*
X144629192Y-87168341D01*
X144629190Y-87168340D01*
X144566593Y-87148963D01*
X144444999Y-87111323D01*
X144438881Y-87110680D01*
X144438876Y-87110679D01*
X144253245Y-87091169D01*
X144253244Y-87091169D01*
X144247117Y-87090525D01*
X144163990Y-87098090D01*
X144094337Y-87084345D01*
X144063476Y-87061704D01*
X144055346Y-87053574D01*
X144021320Y-86991262D01*
X144026385Y-86920447D01*
X144068932Y-86863611D01*
X144135452Y-86838800D01*
X144143781Y-86838481D01*
X144354185Y-86837379D01*
X144365321Y-86836327D01*
X144576816Y-86797129D01*
X144587584Y-86794123D01*
X144788803Y-86718088D01*
X144798863Y-86713225D01*
X144924170Y-86638230D01*
X144933741Y-86627871D01*
X144930198Y-86619408D01*
X143881922Y-85571132D01*
X144604408Y-85571132D01*
X144604539Y-85572965D01*
X144608790Y-85579580D01*
X145288682Y-86259472D01*
X145301062Y-86266232D01*
X145307326Y-86261543D01*
X145405628Y-86080495D01*
X145410061Y-86070249D01*
X145477603Y-85866022D01*
X145480157Y-85855130D01*
X145510743Y-85640219D01*
X145511350Y-85632995D01*
X145512905Y-85573631D01*
X145512677Y-85566379D01*
X145493380Y-85350166D01*
X145491398Y-85339152D01*
X145434640Y-85131679D01*
X145430746Y-85121206D01*
X145338142Y-84927057D01*
X145332447Y-84917428D01*
X145309292Y-84885205D01*
X145298500Y-84876792D01*
X145285463Y-84883747D01*
X144612022Y-85557188D01*
X144604408Y-85571132D01*
X143881922Y-85571132D01*
X143194544Y-84883754D01*
X143182164Y-84876994D01*
X143174192Y-84882962D01*
X143108728Y-84987322D01*
X143103657Y-84997274D01*
X143023425Y-85196857D01*
X143020194Y-85207557D01*
X142976574Y-85418188D01*
X142975289Y-85429295D01*
X142969659Y-85644326D01*
X142970445Y-85656818D01*
X142954761Y-85726060D01*
X142904132Y-85775832D01*
X142834631Y-85790330D01*
X142768326Y-85764951D01*
X142755599Y-85753827D01*
X142270732Y-85268960D01*
X142257655Y-85252768D01*
X142255114Y-85249975D01*
X142249465Y-85241227D01*
X142239031Y-85233001D01*
X142224746Y-85221740D01*
X142219861Y-85217398D01*
X142219821Y-85217445D01*
X142215864Y-85214092D01*
X142212183Y-85210411D01*
X142195271Y-85198325D01*
X142190525Y-85194762D01*
X142162980Y-85173047D01*
X142150311Y-85163060D01*
X142141680Y-85160029D01*
X142134234Y-85154708D01*
X142124256Y-85151724D01*
X142124254Y-85151723D01*
X142085142Y-85140026D01*
X142079495Y-85138191D01*
X142038663Y-85123851D01*
X142038660Y-85123850D01*
X142031184Y-85121225D01*
X142022812Y-85120500D01*
X142020103Y-85120500D01*
X142019810Y-85120487D01*
X142013268Y-85118531D01*
X141987898Y-85119528D01*
X141965632Y-85120403D01*
X141960684Y-85120500D01*
X139187764Y-85120500D01*
X139167046Y-85118295D01*
X139163288Y-85118118D01*
X139153112Y-85115927D01*
X139127655Y-85118940D01*
X139121850Y-85119627D01*
X139115334Y-85120011D01*
X139115339Y-85120072D01*
X139110159Y-85120500D01*
X139104960Y-85120500D01*
X139084455Y-85123913D01*
X139078599Y-85124746D01*
X139027728Y-85130767D01*
X139019480Y-85134728D01*
X139010454Y-85136230D01*
X138965346Y-85160569D01*
X138960088Y-85163247D01*
X138921056Y-85181989D01*
X138921052Y-85181991D01*
X138913910Y-85185421D01*
X138907478Y-85190828D01*
X138905540Y-85192766D01*
X138905349Y-85192942D01*
X138899337Y-85196185D01*
X138879728Y-85217398D01*
X138866967Y-85231202D01*
X138863538Y-85234767D01*
X135644595Y-88453710D01*
X135582283Y-88487736D01*
X135511468Y-88482671D01*
X135454632Y-88440124D01*
X135429821Y-88373604D01*
X135429500Y-88364615D01*
X135429500Y-88051742D01*
X135420070Y-87989014D01*
X135415587Y-87959199D01*
X135415587Y-87959198D01*
X135414187Y-87949888D01*
X135355044Y-87826723D01*
X135262299Y-87726392D01*
X135144153Y-87657768D01*
X135079673Y-87642822D01*
X135033509Y-87632121D01*
X135033506Y-87632121D01*
X135026514Y-87630500D01*
X134391742Y-87630500D01*
X134387095Y-87631199D01*
X134387090Y-87631199D01*
X134299199Y-87644413D01*
X134299198Y-87644413D01*
X134289888Y-87645813D01*
X134166723Y-87704956D01*
X134066392Y-87797701D01*
X134061664Y-87805841D01*
X134040205Y-87842786D01*
X133988694Y-87891644D01*
X133931251Y-87905500D01*
X132059384Y-87905500D01*
X131991263Y-87885498D01*
X131970289Y-87868595D01*
X131874143Y-87772449D01*
X131840117Y-87710137D01*
X131842521Y-87647252D01*
X131878886Y-87525653D01*
X131898370Y-87460503D01*
X131919485Y-87250809D01*
X131919500Y-87245000D01*
X131918528Y-87234806D01*
X131906746Y-87111323D01*
X131899483Y-87035199D01*
X131840155Y-86832967D01*
X131820149Y-86794123D01*
X131746402Y-86650934D01*
X131746400Y-86650931D01*
X131743656Y-86645603D01*
X131684179Y-86569885D01*
X131617175Y-86484584D01*
X131617171Y-86484579D01*
X131613469Y-86479867D01*
X131454290Y-86341739D01*
X131271864Y-86236203D01*
X131266195Y-86234234D01*
X131266192Y-86234233D01*
X131078442Y-86169035D01*
X131072772Y-86167066D01*
X131066834Y-86166205D01*
X130870139Y-86137686D01*
X130870136Y-86137686D01*
X130864199Y-86136825D01*
X130653670Y-86146569D01*
X130647846Y-86147973D01*
X130647843Y-86147973D01*
X130454615Y-86194541D01*
X130454613Y-86194542D01*
X130448782Y-86195947D01*
X130443324Y-86198429D01*
X130443320Y-86198430D01*
X130360244Y-86236203D01*
X130256928Y-86283178D01*
X130085030Y-86405114D01*
X129939291Y-86557355D01*
X129824969Y-86734408D01*
X129822726Y-86739974D01*
X129749994Y-86920447D01*
X129746190Y-86929885D01*
X129745040Y-86935775D01*
X129714710Y-87091084D01*
X129705795Y-87136732D01*
X129705779Y-87142718D01*
X129705779Y-87142721D01*
X129705730Y-87161589D01*
X129705243Y-87347485D01*
X129713623Y-87391625D01*
X129742898Y-87545817D01*
X129744554Y-87554541D01*
X129746766Y-87560113D01*
X129776278Y-87634463D01*
X129782819Y-87705158D01*
X129748263Y-87770043D01*
X128969093Y-88549212D01*
X128906783Y-88583236D01*
X128835967Y-88578171D01*
X128779132Y-88535624D01*
X128754321Y-88469104D01*
X128754000Y-88460115D01*
X128754000Y-84807485D01*
X129705243Y-84807485D01*
X129718440Y-84876994D01*
X129741276Y-84997274D01*
X129744554Y-85014541D01*
X129822309Y-85210427D01*
X129825533Y-85215477D01*
X129825534Y-85215480D01*
X129859670Y-85268960D01*
X129935702Y-85388076D01*
X130080642Y-85541079D01*
X130085507Y-85544569D01*
X130085510Y-85544571D01*
X130242007Y-85656818D01*
X130251899Y-85663913D01*
X130443294Y-85752147D01*
X130449110Y-85753581D01*
X130449113Y-85753582D01*
X130495226Y-85764951D01*
X130647921Y-85802598D01*
X130653911Y-85802907D01*
X130653913Y-85802907D01*
X130727857Y-85806717D01*
X130858396Y-85813444D01*
X130864331Y-85812615D01*
X130864335Y-85812615D01*
X131026132Y-85790020D01*
X131067124Y-85784295D01*
X131237700Y-85726060D01*
X131260896Y-85718141D01*
X131260898Y-85718140D01*
X131266575Y-85716202D01*
X131364173Y-85660420D01*
X131444344Y-85614599D01*
X131444347Y-85614597D01*
X131449552Y-85611622D01*
X131454101Y-85607716D01*
X131454104Y-85607714D01*
X131604900Y-85478237D01*
X131604902Y-85478235D01*
X131609451Y-85474329D01*
X131642065Y-85433255D01*
X131736776Y-85313973D01*
X131740505Y-85309277D01*
X131769985Y-85252768D01*
X131835210Y-85127739D01*
X131835211Y-85127736D01*
X131837984Y-85122421D01*
X131898370Y-84920503D01*
X131902772Y-84876792D01*
X131909750Y-84807485D01*
X131919485Y-84710809D01*
X131919500Y-84705000D01*
X131900922Y-84510285D01*
X143544839Y-84510285D01*
X143551471Y-84522261D01*
X144227188Y-85197978D01*
X144241132Y-85205592D01*
X144242965Y-85205461D01*
X144249580Y-85201210D01*
X144926022Y-84524768D01*
X144932247Y-84513369D01*
X144922437Y-84500938D01*
X144857929Y-84457592D01*
X144848134Y-84452207D01*
X144651177Y-84365748D01*
X144640578Y-84362181D01*
X144431421Y-84311966D01*
X144420359Y-84310333D01*
X144205621Y-84297951D01*
X144194437Y-84298303D01*
X143980900Y-84324144D01*
X143969966Y-84326468D01*
X143764371Y-84389718D01*
X143754025Y-84393939D01*
X143562875Y-84492599D01*
X143553442Y-84498586D01*
X143553303Y-84498693D01*
X143544839Y-84510285D01*
X131900922Y-84510285D01*
X131899483Y-84495199D01*
X131840155Y-84292967D01*
X131836225Y-84285337D01*
X131746402Y-84110934D01*
X131746400Y-84110931D01*
X131743656Y-84105603D01*
X131690519Y-84037956D01*
X131617175Y-83944584D01*
X131617171Y-83944579D01*
X131613469Y-83939867D01*
X131454290Y-83801739D01*
X131271864Y-83696203D01*
X131266195Y-83694234D01*
X131266192Y-83694233D01*
X131078442Y-83629035D01*
X131072772Y-83627066D01*
X131066834Y-83626205D01*
X130870139Y-83597686D01*
X130870136Y-83597686D01*
X130864199Y-83596825D01*
X130653670Y-83606569D01*
X130647846Y-83607973D01*
X130647843Y-83607973D01*
X130454615Y-83654541D01*
X130454613Y-83654542D01*
X130448782Y-83655947D01*
X130443324Y-83658429D01*
X130443320Y-83658430D01*
X130360244Y-83696203D01*
X130256928Y-83743178D01*
X130085030Y-83865114D01*
X129939291Y-84017355D01*
X129824969Y-84194408D01*
X129822726Y-84199974D01*
X129771748Y-84326468D01*
X129746190Y-84389885D01*
X129745040Y-84395775D01*
X129714000Y-84554719D01*
X129705795Y-84596732D01*
X129705243Y-84807485D01*
X128754000Y-84807485D01*
X128754000Y-79892548D01*
X129447000Y-79892548D01*
X129447000Y-80472743D01*
X129447161Y-80477250D01*
X129451740Y-80541269D01*
X129454126Y-80554491D01*
X129490819Y-80679458D01*
X129498233Y-80695692D01*
X129567426Y-80803360D01*
X129579112Y-80816847D01*
X129675840Y-80900662D01*
X129690848Y-80910307D01*
X129807275Y-80963477D01*
X129824388Y-80968502D01*
X129955554Y-80987361D01*
X129964495Y-80988000D01*
X130164867Y-80988000D01*
X130232988Y-81008002D01*
X130279481Y-81061658D01*
X130289585Y-81131932D01*
X130260091Y-81196512D01*
X130237768Y-81216769D01*
X130085030Y-81325114D01*
X129939291Y-81477355D01*
X129824969Y-81654408D01*
X129822726Y-81659974D01*
X129755148Y-81827658D01*
X129746190Y-81849885D01*
X129740309Y-81880000D01*
X129718533Y-81991508D01*
X129705795Y-82056732D01*
X129705779Y-82062718D01*
X129705779Y-82062721D01*
X129705760Y-82070113D01*
X129705243Y-82267485D01*
X129709636Y-82290623D01*
X129734445Y-82421293D01*
X129744554Y-82474541D01*
X129822309Y-82670427D01*
X129935702Y-82848076D01*
X130080642Y-83001079D01*
X130085507Y-83004569D01*
X130085510Y-83004571D01*
X130247029Y-83120420D01*
X130251899Y-83123913D01*
X130443294Y-83212147D01*
X130449110Y-83213581D01*
X130449113Y-83213582D01*
X130543566Y-83236869D01*
X130647921Y-83262598D01*
X130653911Y-83262907D01*
X130653913Y-83262907D01*
X130727857Y-83266717D01*
X130858396Y-83273444D01*
X130864331Y-83272615D01*
X130864335Y-83272615D01*
X131026132Y-83250020D01*
X131067124Y-83244295D01*
X131211269Y-83195084D01*
X131260896Y-83178141D01*
X131260898Y-83178140D01*
X131266575Y-83176202D01*
X131364173Y-83120420D01*
X131444344Y-83074599D01*
X131444347Y-83074597D01*
X131449552Y-83071622D01*
X131454101Y-83067716D01*
X131454104Y-83067714D01*
X131604900Y-82938237D01*
X131604902Y-82938235D01*
X131609451Y-82934329D01*
X131740505Y-82769277D01*
X131771058Y-82710711D01*
X131835210Y-82587739D01*
X131835211Y-82587736D01*
X131837984Y-82582421D01*
X131898370Y-82380503D01*
X131919485Y-82170809D01*
X131919500Y-82165000D01*
X131899483Y-81955199D01*
X131840155Y-81752967D01*
X131831817Y-81736777D01*
X131746402Y-81570934D01*
X131746400Y-81570931D01*
X131743656Y-81565603D01*
X131692124Y-81500000D01*
X131617175Y-81404584D01*
X131617171Y-81404579D01*
X131613469Y-81399867D01*
X131454290Y-81261739D01*
X131387438Y-81223064D01*
X131338489Y-81171639D01*
X131325114Y-81101913D01*
X131351558Y-81036025D01*
X131409427Y-80994894D01*
X131450533Y-80988000D01*
X131657743Y-80988000D01*
X131662250Y-80987839D01*
X131726269Y-80983260D01*
X131739491Y-80980874D01*
X131864458Y-80944181D01*
X131880692Y-80936767D01*
X131988360Y-80867574D01*
X132001847Y-80855888D01*
X132085662Y-80759160D01*
X132095307Y-80744152D01*
X132148477Y-80627725D01*
X132153502Y-80610612D01*
X132172361Y-80479446D01*
X132173000Y-80470503D01*
X132173000Y-79897115D01*
X132168525Y-79881876D01*
X132167135Y-79880671D01*
X132159452Y-79879000D01*
X129465115Y-79879000D01*
X129449876Y-79883475D01*
X129448671Y-79884865D01*
X129447000Y-79892548D01*
X128754000Y-79892548D01*
X128754000Y-78779495D01*
X129447000Y-78779495D01*
X129447000Y-79352885D01*
X129451475Y-79368124D01*
X129452865Y-79369329D01*
X129460548Y-79371000D01*
X130537885Y-79371000D01*
X130553124Y-79366525D01*
X130554329Y-79365135D01*
X130556000Y-79357452D01*
X130556000Y-78280115D01*
X130554659Y-78275548D01*
X131064000Y-78275548D01*
X131064000Y-79352885D01*
X131068475Y-79368124D01*
X131069865Y-79369329D01*
X131077548Y-79371000D01*
X132154885Y-79371000D01*
X132170124Y-79366525D01*
X132171329Y-79365135D01*
X132173000Y-79357452D01*
X132173000Y-78777257D01*
X132172839Y-78772750D01*
X132168260Y-78708731D01*
X132165874Y-78695509D01*
X132129181Y-78570542D01*
X132121767Y-78554308D01*
X132052574Y-78446640D01*
X132040888Y-78433153D01*
X131944160Y-78349338D01*
X131929152Y-78339693D01*
X131812725Y-78286523D01*
X131795612Y-78281498D01*
X131664446Y-78262639D01*
X131655505Y-78262000D01*
X131082115Y-78262000D01*
X131066876Y-78266475D01*
X131065671Y-78267865D01*
X131064000Y-78275548D01*
X130554659Y-78275548D01*
X130551525Y-78264876D01*
X130550135Y-78263671D01*
X130542452Y-78262000D01*
X129962257Y-78262000D01*
X129957750Y-78262161D01*
X129893731Y-78266740D01*
X129880509Y-78269126D01*
X129755542Y-78305819D01*
X129739308Y-78313233D01*
X129631640Y-78382426D01*
X129618153Y-78394112D01*
X129534338Y-78490840D01*
X129524693Y-78505848D01*
X129471523Y-78622275D01*
X129466498Y-78639388D01*
X129447639Y-78770554D01*
X129447000Y-78779495D01*
X128754000Y-78779495D01*
X128754000Y-77880000D01*
X128774002Y-77811879D01*
X128827658Y-77765386D01*
X128880000Y-77754000D01*
X133327567Y-77754000D01*
X133395688Y-77774002D01*
G37*
%TD.AperFunction*%
%TD*%
M02*
