%TF.GenerationSoftware,KiCad,Pcbnew,5.99.0-1.20210520gite8102d8.fc34*%
%TF.CreationDate,2021-05-24T16:10:21-07:00*%
%TF.ProjectId,ST_to_MEGA,53545f74-6f5f-44d4-9547-412e6b696361,rev?*%
%TF.SameCoordinates,Original*%
%TF.FileFunction,Legend,Top*%
%TF.FilePolarity,Positive*%
%FSLAX46Y46*%
G04 Gerber Fmt 4.6, Leading zero omitted, Abs format (unit mm)*
G04 Created by KiCad (PCBNEW 5.99.0-1.20210520gite8102d8.fc34) date 2021-05-24 16:10:21*
%MOMM*%
%LPD*%
G01*
G04 APERTURE LIST*
%ADD10C,0.150000*%
%ADD11C,0.120000*%
%ADD12C,0.100000*%
G04 APERTURE END LIST*
D10*
%TO.C,R2*%
X137682380Y-94276666D02*
X137206190Y-94610000D01*
X137682380Y-94848095D02*
X136682380Y-94848095D01*
X136682380Y-94467142D01*
X136730000Y-94371904D01*
X136777619Y-94324285D01*
X136872857Y-94276666D01*
X137015714Y-94276666D01*
X137110952Y-94324285D01*
X137158571Y-94371904D01*
X137206190Y-94467142D01*
X137206190Y-94848095D01*
X136777619Y-93895714D02*
X136730000Y-93848095D01*
X136682380Y-93752857D01*
X136682380Y-93514761D01*
X136730000Y-93419523D01*
X136777619Y-93371904D01*
X136872857Y-93324285D01*
X136968095Y-93324285D01*
X137110952Y-93371904D01*
X137682380Y-93943333D01*
X137682380Y-93324285D01*
%TO.C,R1*%
X133722380Y-89276666D02*
X133246190Y-89610000D01*
X133722380Y-89848095D02*
X132722380Y-89848095D01*
X132722380Y-89467142D01*
X132770000Y-89371904D01*
X132817619Y-89324285D01*
X132912857Y-89276666D01*
X133055714Y-89276666D01*
X133150952Y-89324285D01*
X133198571Y-89371904D01*
X133246190Y-89467142D01*
X133246190Y-89848095D01*
X133722380Y-88324285D02*
X133722380Y-88895714D01*
X133722380Y-88610000D02*
X132722380Y-88610000D01*
X132865238Y-88705238D01*
X132960476Y-88800476D01*
X133008095Y-88895714D01*
%TO.C,J2*%
X132747380Y-79483333D02*
X133461666Y-79483333D01*
X133604523Y-79530952D01*
X133699761Y-79626190D01*
X133747380Y-79769047D01*
X133747380Y-79864285D01*
X132842619Y-79054761D02*
X132795000Y-79007142D01*
X132747380Y-78911904D01*
X132747380Y-78673809D01*
X132795000Y-78578571D01*
X132842619Y-78530952D01*
X132937857Y-78483333D01*
X133033095Y-78483333D01*
X133175952Y-78530952D01*
X133747380Y-79102380D01*
X133747380Y-78483333D01*
%TO.C,J1*%
X138992380Y-93923333D02*
X139706666Y-93923333D01*
X139849523Y-93970952D01*
X139944761Y-94066190D01*
X139992380Y-94209047D01*
X139992380Y-94304285D01*
X139992380Y-92923333D02*
X139992380Y-93494761D01*
X139992380Y-93209047D02*
X138992380Y-93209047D01*
X139135238Y-93304285D01*
X139230476Y-93399523D01*
X139278095Y-93494761D01*
D11*
%TO.C,R2*%
X136322500Y-93872742D02*
X136322500Y-94347258D01*
X135277500Y-93872742D02*
X135277500Y-94347258D01*
%TO.C,R1*%
X134177500Y-89347258D02*
X134177500Y-88872742D01*
X135222500Y-89347258D02*
X135222500Y-88872742D01*
%TO.C,J2*%
X129480000Y-78295000D02*
X130810000Y-78295000D01*
X129480000Y-79625000D02*
X129480000Y-78295000D01*
X129480000Y-80895000D02*
X132140000Y-80895000D01*
X132140000Y-80895000D02*
X132140000Y-98735000D01*
X129480000Y-80895000D02*
X129480000Y-98735000D01*
X129480000Y-98735000D02*
X132140000Y-98735000D01*
%TO.C,J1*%
X140470000Y-95350000D02*
X140470000Y-82150000D01*
X140470000Y-82150000D02*
X149490000Y-82150000D01*
D12*
X158350000Y-82150000D02*
X158470000Y-82150000D01*
D11*
X158470000Y-82150000D02*
X151690000Y-82150000D01*
D12*
X158460000Y-82150000D02*
X158470000Y-82150000D01*
D11*
X158470000Y-82150000D02*
X158470000Y-95350000D01*
X158470000Y-95350000D02*
X151690000Y-95350000D01*
D12*
X149420000Y-95350000D02*
X149490000Y-95350000D01*
D11*
X149490000Y-95350000D02*
X140470000Y-95350000D01*
X142470000Y-95820000D02*
X140940000Y-95820000D01*
%TD*%
M02*
